<?xml version="1.0" encoding="iso-8859-1"?>
<!-- Uploaded to: SVG Repo, www.svgrepo.com, Generator: SVG Repo Mixer Tools -->
<svg version="1.1" id="Layer_1" xmlns="http://www.w3.org/2000/svg" xmlns:xlink="http://www.w3.org/1999/xlink" 
	 viewBox="0 0 507.6 507.6" xml:space="preserve">
<path style="fill:#EF934A;" d="M461.8,473.6c0,17.6-14.4,28-32,28h-356c-17.6,0-24-10.4-24-28v-396c0-17.6,6.4-32,24-32h356
	c17.6,0,32,14.4,32,32V473.6z"/>
<rect x="81.8" y="69.6" style="fill:#F4EFEF;" width="348" height="404"/>
<path style="fill:#FFC52F;" d="M353.8,89.6V56.8c0-17.6-11.6-31.2-29.2-31.2h-41.2c-3.6-12-14-19.6-26.8-19.6
	c-12.4,0-23.2,7.6-26.8,19.6h-41.6c-17.6,0-34.8,13.6-34.8,31.2v32.8H353.8z"/>
<path style="fill:#F4EFEF;" d="M256.6,41.2c-6.8,0-12-5.2-12-12s5.2-12,12-12s12,5.2,12,12C268.6,35.6,263.4,41.2,256.6,41.2z"/>
<path d="M373.8,151.6h-236c-2.4,0-4-1.6-4-4s1.6-4,4-4h236c2.4,0,4,1.6,4,4S376.2,151.6,373.8,151.6z"/>
<path d="M169.8,191.6h-32c-2.4,0-4-1.6-4-4s1.6-4,4-4h32c2.4,0,4,1.6,4,4S172.2,191.6,169.8,191.6z"/>
<path d="M373.8,191.6h-168c-2.4,0-4-1.6-4-4s1.6-4,4-4h168c2.4,0,4,1.6,4,4S376.2,191.6,373.8,191.6z"/>
<path d="M373.8,231.6h-32c-2.4,0-4-1.6-4-4s1.6-4,4-4h32c2.4,0,4,1.6,4,4S376.2,231.6,373.8,231.6z"/>
<path d="M305.8,231.6h-168c-2.4,0-4-1.6-4-4s1.6-4,4-4h168c2.4,0,4,1.6,4,4S308.2,231.6,305.8,231.6z"/>
<path d="M373.8,271.6h-236c-2.4,0-4-1.6-4-4s1.6-4,4-4h236c2.4,0,4,1.6,4,4S376.2,271.6,373.8,271.6z"/>
<path d="M373.8,391.6h-236c-2.4,0-4-1.6-4-4s1.6-4,4-4h236c2.4,0,4,1.6,4,4S376.2,391.6,373.8,391.6z"/>
<path d="M169.8,311.6h-32c-2.4,0-4-1.6-4-4s1.6-4,4-4h32c2.4,0,4,1.6,4,4S172.2,311.6,169.8,311.6z"/>
<path d="M373.8,311.6h-168c-2.4,0-4-1.6-4-4s1.6-4,4-4h168c2.4,0,4,1.6,4,4S376.2,311.6,373.8,311.6z"/>
<path d="M373.8,351.6h-32c-2.4,0-4-1.6-4-4s1.6-4,4-4h32c2.4,0,4,1.6,4,4S376.2,351.6,373.8,351.6z"/>
<path d="M305.8,351.6h-168c-2.4,0-4-1.6-4-4s1.6-4,4-4h168c2.4,0,4,1.6,4,4S308.2,351.6,305.8,351.6z"/>
<path d="M169.8,431.6h-32c-2.4,0-4-1.6-4-4s1.6-4,4-4h32c2.4,0,4,1.6,4,4S172.2,431.6,169.8,431.6z"/>
<path d="M373.8,431.6h-168c-2.4,0-4-1.6-4-4s1.6-4,4-4h168c2.4,0,4,1.6,4,4S376.2,431.6,373.8,431.6z"/>
<path d="M427.8,479.6h-348c-2.4,0-4-1.6-4-4v-404c0-2.4,1.6-4,4-4h70c2.4,0,4,1.6,4,4s-1.6,4-4,4h-66v396h340v-396h-70
	c-2.4,0-4-1.6-4-4s1.6-4,4-4h74c2.4,0,4,1.6,4,4v404C431.8,478,430.2,479.6,427.8,479.6z"/>
<path d="M432.6,507.6h-356c-19.2,0-32.8-14.8-32.8-35.2V77.2c0-20,13.2-33.6,32.8-33.6h73.2c2.4,0,4,1.6,4,4s-1.6,4-4,4H76.6
	c-15.2,0-24.8,10-24.8,25.6v395.2c0,16,10.4,27.2,24.8,27.2h356c16.8,0,23.2-14,23.2-27.2V77.2c0-16.4-8.4-25.6-23.2-25.6h-78.8
	c-2.4,0-4-1.6-4-4s1.6-4,4-4h78.8c19.2,0,31.2,12.8,31.2,33.6v395.2C463.8,494,451.8,507.6,432.6,507.6z"/>
<path d="M256.6,45.2c-8.8,0-16-7.2-16-16s7.2-16,16-16s16,7.2,16,16S265.4,45.2,256.6,45.2z M256.6,21.2c-4.4,0-8,3.6-8,8s3.6,8,8,8
	s8-3.6,8-8S261,21.2,256.6,21.2z"/>
<path d="M351.8,91.6h-200c-2.4,0-4-1.6-4-4V52.8c0-20,21.2-33.2,40.8-33.2h38.8C232.2,7.6,243.4,0,257,0s24.8,7.6,29.6,19.6H325
	c19.2,0,31.2,12.8,31.2,33.2v34.8C355.8,90,354.2,91.6,351.8,91.6z M155.8,83.6h192V52.8c0-16-8.4-25.2-23.2-25.2h-41.2
	c-1.6,0-3.2-1.2-4-2.8C276.6,14.4,267.4,8,256.6,8s-20,6.4-22.8,16.8c-0.4,1.6-2,2.8-4,2.8h-41.6c-16,0-32.8,10-32.8,25.2v30.8
	H155.8z"/>
</svg>