<?xml version="1.0" encoding="iso-8859-1"?>
<!-- Uploaded to: SVG Repo, www.svgrepo.com, Generator: SVG Repo Mixer Tools -->
<svg height="800px" width="800px" version="1.1" id="Layer_1" xmlns="http://www.w3.org/2000/svg" xmlns:xlink="http://www.w3.org/1999/xlink" 
	 viewBox="0 0 512.001 512.001" xml:space="preserve">
<path style="fill:#E4EAF6;" d="M256,456.029c-110.293,0-200.027-89.734-200.027-200.027S145.707,55.975,256,55.975
	s200.027,89.734,200.027,200.027S366.293,456.029,256,456.029z"/>
<path style="fill:#C3E678;" d="M256,432.025c-97.058,0-176.023-78.966-176.023-176.023S158.942,79.979,256,79.979
	s176.023,78.965,176.023,176.023S353.058,432.025,256,432.025z"/>
<path style="fill:#A5D76E;" d="M328.01,384.019c-97.058,0-176.023-78.966-176.023-176.023c0-45.203,17.141-86.469,45.248-117.675
	c-68.199,24.27-117.258,89.259-117.258,165.681c0,97.058,78.965,176.023,176.023,176.023c51.57,0,97.874-22.424,130.078-57.894
	C367.884,380.51,348.353,384.019,328.01,384.019z"/>
<g>
	<path style="fill:#E6AF78;" d="M299.216,302.503c-2.626-0.75-10.835-3.727-10.847-10.322l-0.061-19.351l-64.445,0.14l0.012,19.352
		c0.011,5.814-6.353,8.836-9.659,9.993l41.974,25.697L299.216,302.503z"/>
	<path style="fill:#E6AF78;" d="M288.368,292.181l-0.051-16.2c-8.463,16.453-25.597,27.716-45.374,27.716
		c-7.944,0-15.464-1.817-22.168-5.058c-2.086,1.868-4.769,3.048-6.56,3.675l41.974,25.697l43.027-25.508
		C296.589,301.752,288.38,298.777,288.368,292.181z"/>
</g>
<path style="fill:#D29B6E;" d="M288.317,275.981l-0.01-3.15l-64.445,0.14l0.012,19.352c0.005,2.664-1.334,4.737-3.099,6.318
	c6.704,3.239,14.223,5.058,22.168,5.058C262.72,303.696,279.854,292.434,288.317,275.981z"/>
<path style="fill:#785550;" d="M304.012,151.897c-24.382,3.529-56.388-19.397-80.22,0.15c-14.431,0.027-23.605,11.537-23.576,26.878
	c0.027,14.458,8.01,43.154,8.01,43.154l0.015,7.748c-0.027-14.073,8.242-37.759,8.242-37.759
	c41.369-0.078,75.432,11.748,87.637,16.587l-0.001-0.75l0.001,0.75c0.884,0.351,1.648,0.663,2.297,0.933
	C312.947,181.629,306.935,158.505,304.012,151.897z"/>
<path style="fill:#F0C087;" d="M208.24,229.827c0.056,29.955,21.174,57.896,47.961,57.846c26.788-0.051,48.016-26.554,47.96-56.509
	l-0.042-22.509c-12.205-4.841-46.268-16.666-87.637-16.587C216.482,192.067,208.214,215.754,208.24,229.827z"/>
<path style="fill:#E6AF78;" d="M225.533,236.766c-0.816-38.899,5.65-36.942,5.65-36.942c11.742-2.709,29.15-2.017,48.171,0.728
	c-16.361-4.389-38.33-8.531-62.872-8.485c0,0-8.268,23.686-8.242,37.759c0.052,27.799,18.247,53.848,42.277,57.416
	C240.109,279.02,226.024,260.184,225.533,236.766z"/>
<path style="fill:#EFF2FA;" d="M352.282,342.021c-0.025-13.424-8.514-27.739-23.123-31.801l-29.939-7.716
	c-0.001,0-0.003-0.001-0.004-0.001l-43.027,25.508l-41.974-25.697c-0.447,0.156-0.842,0.281-1.154,0.371l-29.91,7.828
	c-14.594,4.119-23.028,18.464-23.003,31.888l0.016,8.641c0.009,5.055,4.697,9.144,10.469,9.133l171.228-0.341
	c5.773-0.011,10.444-4.118,10.435-9.172L352.282,342.021z"/>
<g>
	<path style="fill:#E4EAF6;" d="M195.126,359.704v-9.632c0-4.934-2.236-9.635-6.152-12.933l-20.537-17.13
		c-5.382,6.268-8.303,14.49-8.288,22.394l0.016,8.641c0.006,3.42,2.158,6.394,5.336,7.959c1.333,0.444,2.617,0.702,3.662,0.702
		h25.962V359.704z"/>
	<path style="fill:#E4EAF6;" d="M352.298,350.664l-0.016-8.641c-0.013-6.897-2.265-14.026-6.429-19.882l-18.468,14.999
		c-3.916,3.297-6.152,7.999-6.152,12.933v9.632h22.311C348.513,358.989,352.307,355.216,352.298,350.664z"/>
</g>
<path style="fill:#694B4B;" d="M304.012,151.897c-10.586,1.532-22.611-1.922-34.779-4.723c-15.856-3.649-31.957-6.188-45.442,4.873
	c-0.115,0-0.226,0.007-0.34,0.009c-1.67,1.724,1.489,6.62,1.489,6.62s-6.334,3-9.001,15.002c-1.459,6.567-1.067,13.607,0.986,18.391
	c18.779,0.003,36.032,2.45,50.404,5.571c17.134,3.719,30.176,8.391,36.789,11.014c0.884,0.351,1.648,0.663,2.297,0.933
	C312.947,181.629,306.935,158.505,304.012,151.897z"/>
<path d="M331.169,302.993c-0.046-0.013-0.092-0.024-0.138-0.037l-29.835-7.689c-2.87-0.838-5.103-2.406-5.327-3.11l-0.052-16.502
	c0.063-0.075,0.13-0.145,0.193-0.22c10.124-12.148,15.683-27.875,15.652-44.285L311.639,219
	c10.125-33.128,2.919-61.801-0.767-70.136c-0.012-0.026-0.026-0.05-0.038-0.076c-0.067-0.147-0.141-0.289-0.217-0.431
	c-0.044-0.081-0.085-0.164-0.131-0.243c-0.073-0.125-0.154-0.246-0.234-0.366c-0.06-0.09-0.117-0.181-0.18-0.268
	c-0.071-0.097-0.148-0.189-0.223-0.283c-0.081-0.101-0.16-0.202-0.245-0.297c-0.067-0.074-0.138-0.144-0.208-0.215
	c-0.101-0.104-0.2-0.208-0.306-0.306c-0.068-0.063-0.141-0.12-0.211-0.18c-0.112-0.096-0.224-0.192-0.341-0.281
	c-0.082-0.062-0.168-0.117-0.252-0.176c-0.111-0.077-0.22-0.155-0.335-0.226c-0.107-0.066-0.219-0.125-0.33-0.186
	c-0.096-0.053-0.191-0.109-0.289-0.158c-0.135-0.067-0.275-0.124-0.414-0.183c-0.079-0.033-0.157-0.07-0.238-0.101
	c-0.15-0.057-0.304-0.104-0.458-0.152c-0.076-0.023-0.15-0.05-0.227-0.071c-0.147-0.041-0.298-0.072-0.448-0.103
	c-0.089-0.019-0.177-0.041-0.268-0.056c-0.131-0.022-0.264-0.037-0.397-0.052c-0.115-0.014-0.23-0.029-0.346-0.038
	c-0.108-0.007-0.218-0.008-0.327-0.011c-0.144-0.004-0.288-0.008-0.433-0.003c-0.09,0.003-0.18,0.011-0.271,0.018
	c-0.162,0.011-0.324,0.024-0.486,0.045c-0.028,0.004-0.055,0.004-0.082,0.008c-7.804,1.128-17.258-1.115-27.268-3.492
	c-17.552-4.168-37.355-8.86-54.582,3.689c-16.628,1.395-28.408,15.378-28.373,34.268l0,0l0,0l0,0l0,0
	c0.026,13.895,6.56,38.793,8.011,44.154l0.008,4.001c0,0.004,0,0.009,0,0.014c0,0.001,0,0.003,0,0.004l0.005,2.728
	c0.03,16.226,5.722,32.579,15.615,44.865c0.003,0.004,0.006,0.007,0.01,0.011l0.012,17.631c-0.223,0.682-2.45,2.259-5.317,3.107
	l-29.806,7.801c-0.046,0.012-0.092,0.024-0.138,0.037c-18.727,5.285-28.497,23.681-28.467,39.121l0.016,8.642
	c0.018,9.172,8.065,16.62,17.948,16.619c0.012,0,0.025,0,0.038,0l85.422-0.169c0.059,0.001,0.117,0.009,0.176,0.009
	c0.005,0,0.01,0,0.015,0c0.062,0,0.122-0.008,0.184-0.01l85.429-0.169c9.899-0.019,17.939-7.505,17.922-16.687l-0.016-8.642
	C359.754,326.566,349.915,308.208,331.169,302.993z M256.204,319.282l-28.531-17.045c2.254-2.683,3.71-5.98,3.703-9.92l-0.003-4.254
	c7.611,4.644,16.027,7.111,24.754,7.11c0.028,0,0.059,0,0.087,0c8.695-0.016,17.071-2.368,24.639-6.781l0.012,3.803
	c0.008,4.055,1.554,7.426,3.928,10.141L256.204,319.282z M207.717,178.911L207.717,178.911L207.717,178.911
	c-0.017-8.918,4.188-19.34,16.089-19.362c0.057,0,0.112-0.007,0.169-0.009c0.188-0.004,0.375-0.011,0.563-0.03
	c0.097-0.009,0.191-0.027,0.287-0.041c0.148-0.02,0.295-0.039,0.442-0.068c0.111-0.022,0.218-0.052,0.326-0.079
	c0.129-0.032,0.258-0.061,0.385-0.1c0.115-0.035,0.226-0.078,0.338-0.118c0.118-0.042,0.236-0.082,0.352-0.13
	c0.118-0.049,0.232-0.106,0.347-0.162c0.105-0.05,0.211-0.097,0.315-0.152c0.129-0.069,0.252-0.146,0.376-0.223
	c0.085-0.052,0.171-0.099,0.254-0.155c0.157-0.105,0.306-0.22,0.454-0.336c0.044-0.034,0.091-0.063,0.134-0.099
	c11.947-9.798,27.349-6.141,43.655-2.269c8.714,2.068,17.664,4.194,26.322,4.194c0.093,0,0.185-0.004,0.278-0.004
	c2.172,7.786,4.387,21.938,2.035,38.812c-12.594-4.617-43.215-14.015-83.875-14.015c-0.165,0-0.33,0-0.495,0.001
	c-0.018,0-0.036,0.002-0.055,0.002c-0.174,0.002-0.347,0.014-0.519,0.027c-0.08,0.006-0.162,0.009-0.241,0.018
	c-0.144,0.016-0.286,0.042-0.428,0.066c-0.107,0.018-0.214,0.032-0.319,0.055c-0.099,0.021-0.196,0.051-0.294,0.076
	c-0.142,0.037-0.286,0.071-0.424,0.116c-0.057,0.019-0.111,0.042-0.168,0.062c-0.173,0.061-0.346,0.122-0.513,0.194
	c-0.041,0.018-0.08,0.04-0.12,0.058c-0.177,0.081-0.353,0.164-0.522,0.257c-0.072,0.04-0.14,0.086-0.21,0.128
	c-0.133,0.079-0.267,0.156-0.394,0.243c-0.132,0.09-0.257,0.189-0.384,0.288c-0.06,0.047-0.124,0.09-0.183,0.139
	c-0.151,0.125-0.295,0.261-0.437,0.398c-0.03,0.029-0.063,0.055-0.092,0.085c-0.128,0.129-0.249,0.267-0.368,0.406
	c-0.039,0.045-0.081,0.088-0.12,0.134c-0.093,0.114-0.178,0.235-0.265,0.355c-0.059,0.081-0.12,0.159-0.176,0.242
	c-0.061,0.092-0.115,0.189-0.172,0.285c-0.073,0.121-0.147,0.241-0.214,0.367c-0.039,0.073-0.072,0.151-0.108,0.226
	c-0.074,0.153-0.147,0.307-0.211,0.465c-0.007,0.018-0.016,0.034-0.023,0.051c-0.05,0.126-0.258,0.66-0.574,1.505
	C208.204,186.311,207.723,182.123,207.717,178.911z M215.741,229.813l-0.005-2.745c-0.012-8.144,3.453-20.082,5.978-27.452
	c36.893,0.721,64.658,9.621,74.913,13.424l0.009,4.791c0,0.025,0,0.05,0,0.075l0.025,13.273
	c0.05,26.516-18.484,48.952-40.473,48.992c-0.02,0-0.038,0-0.058,0c-10.391,0-20.367-5.281-28.091-14.874
	C220.247,255.621,215.765,242.688,215.741,229.813z M170.621,352.675c-0.003,0-0.006,0-0.009,0c-1.825,0-2.944-1.064-2.945-1.646
	l-0.016-8.642c-0.019-9.769,5.979-21.357,17.476-24.637l27.303-7.146l36.267,21.668l0.038,20.248L170.621,352.675z M341.847,352.335
	l-78.112,0.155l-0.038-20.211l36.668-21.734l26.849,6.919c11.509,3.238,17.548,14.802,17.567,24.57l0.016,8.642
	C344.798,351.26,343.68,352.331,341.847,352.335z"/>
<path d="M505.476,510.997c0.164-0.021,0.328-0.042,0.49-0.074c0.066-0.013,0.129-0.033,0.194-0.048
	c0.174-0.04,0.349-0.08,0.521-0.132c0.046-0.014,0.091-0.033,0.137-0.048c0.187-0.061,0.373-0.125,0.556-0.201
	c0.032-0.013,0.062-0.03,0.094-0.043c0.192-0.083,0.383-0.171,0.57-0.271c0.029-0.015,0.055-0.034,0.084-0.049
	c0.185-0.102,0.367-0.208,0.545-0.328c0.051-0.034,0.098-0.074,0.148-0.109c0.15-0.105,0.299-0.211,0.443-0.329
	c0.193-0.158,0.378-0.326,0.555-0.504s0.345-0.364,0.502-0.557c0.112-0.137,0.212-0.281,0.312-0.423
	c0.04-0.058,0.085-0.111,0.124-0.169c0.12-0.181,0.228-0.367,0.331-0.555c0.014-0.025,0.03-0.048,0.043-0.073
	c0.103-0.194,0.194-0.393,0.279-0.593c0.01-0.024,0.022-0.046,0.032-0.07c0.078-0.191,0.145-0.386,0.207-0.582
	c0.012-0.038,0.027-0.074,0.039-0.111c0.055-0.183,0.098-0.369,0.138-0.555c0.012-0.053,0.028-0.105,0.039-0.159
	c0.035-0.18,0.058-0.36,0.08-0.541c0.008-0.063,0.02-0.124,0.026-0.186c0.023-0.244,0.035-0.488,0.035-0.732l-0.15-80.011
	c-0.008-4.139-3.364-7.487-7.501-7.487c-0.005,0-0.01,0-0.015,0c-4.143,0.008-7.495,3.372-7.487,7.516l0.116,61.901l-83.083-82.771
	c37.328-40.105,57.751-92.044,57.648-147.106c-0.103-55.053-20.723-106.923-58.2-146.887L496.1,25.627l0.116,61.901
	c0.008,4.139,3.364,7.487,7.501,7.487c0.005,0,0.01,0,0.015,0c4.143-0.008,7.495-3.372,7.487-7.516l-0.15-80.011V7.488
	c-0.001-0.244-0.013-0.488-0.038-0.731c-0.006-0.061-0.019-0.12-0.026-0.18c-0.023-0.183-0.047-0.366-0.083-0.547
	c-0.01-0.051-0.026-0.1-0.037-0.15c-0.042-0.189-0.086-0.377-0.143-0.563c-0.01-0.034-0.025-0.067-0.035-0.101
	c-0.064-0.199-0.132-0.396-0.213-0.591c-0.01-0.022-0.022-0.044-0.031-0.067c-0.086-0.201-0.178-0.4-0.282-0.595
	c-0.013-0.024-0.029-0.046-0.042-0.07c-0.104-0.189-0.213-0.376-0.335-0.557c-0.035-0.053-0.077-0.103-0.114-0.155
	c-0.104-0.147-0.208-0.295-0.324-0.436c-0.158-0.192-0.326-0.378-0.504-0.556c-0.178-0.177-0.364-0.344-0.557-0.501
	c-0.137-0.112-0.28-0.211-0.423-0.312c-0.057-0.04-0.111-0.085-0.169-0.124c-0.173-0.115-0.352-0.218-0.532-0.317
	c-0.033-0.018-0.063-0.039-0.096-0.056c-0.186-0.099-0.376-0.186-0.568-0.268c-0.031-0.014-0.062-0.03-0.093-0.043
	c-0.185-0.076-0.372-0.14-0.561-0.201c-0.044-0.014-0.086-0.032-0.13-0.045c-0.177-0.053-0.356-0.095-0.536-0.134
	c-0.059-0.013-0.117-0.031-0.177-0.043c-0.172-0.034-0.346-0.056-0.52-0.077c-0.069-0.009-0.137-0.023-0.206-0.03
	c-0.201-0.019-0.403-0.026-0.605-0.03c-0.041,0-0.081-0.005-0.122-0.005c-0.003,0-0.006,0-0.009,0s-0.007,0-0.01,0l-80.005,0.15
	c-4.143,0.008-7.495,3.372-7.487,7.515c0.008,4.138,3.364,7.487,7.501,7.487c0.005,0,0.01,0,0.015,0l61.901-0.116l-82.771,83.083
	c-39.995-37.226-91.78-57.648-146.69-57.648h-0.414c-55.061,0.104-106.923,20.722-146.887,58.2L25.626,15.902l61.901-0.116
	c4.143-0.008,7.495-3.372,7.487-7.516c-0.008-4.138-3.364-7.486-7.501-7.486c-0.005,0-0.01,0-0.015,0L7.493,0.934
	c-0.248,0-0.495,0.013-0.742,0.038C6.716,0.976,6.682,0.983,6.648,0.987C6.439,1.011,6.23,1.04,6.023,1.082
	C5.994,1.087,5.966,1.097,5.937,1.103C5.726,1.148,5.516,1.198,5.309,1.262c-0.014,0.004-0.027,0.01-0.041,0.014
	c-0.22,0.069-0.436,0.145-0.65,0.234C4.616,1.511,4.614,1.512,4.612,1.513C4.168,1.698,3.738,1.927,3.329,2.201
	c-0.02,0.014-0.038,0.03-0.058,0.043C3.09,2.368,2.912,2.497,2.74,2.639C2.548,2.796,2.363,2.963,2.187,3.141
	C2.009,3.319,1.842,3.505,1.685,3.698C1.573,3.836,1.473,3.98,1.372,4.123C1.332,4.18,1.287,4.234,1.248,4.292
	c-0.12,0.181-0.227,0.367-0.33,0.555C0.904,4.872,0.888,4.895,0.875,4.92C0.772,5.113,0.682,5.311,0.597,5.51
	c-0.01,0.025-0.024,0.048-0.034,0.073C0.485,5.774,0.419,5.969,0.357,6.165C0.345,6.202,0.329,6.238,0.318,6.276
	C0.264,6.457,0.221,6.641,0.181,6.825c-0.012,0.056-0.029,0.11-0.04,0.166C0.106,7.169,0.084,7.348,0.062,7.527
	c-0.008,0.064-0.021,0.126-0.027,0.19C0.012,7.961,0,8.205,0,8.449l0,0L0.15,88.46c0.008,4.139,3.364,7.487,7.501,7.487
	c0.005,0,0.01,0,0.015,0c4.143-0.008,7.495-3.372,7.487-7.515l-0.116-61.901l83.083,82.771
	c-37.328,40.104-57.751,92.043-57.647,147.106c0.103,55.057,20.722,106.928,58.197,146.891l-82.768,83.079l-0.116-61.902
	c-0.008-4.138-3.364-7.486-7.501-7.486c-0.005,0-0.01,0-0.015,0c-4.143,0.008-7.495,3.372-7.487,7.515l0.15,80.011v0.001
	c0,0.247,0.014,0.493,0.039,0.738c0.011,0.114,0.033,0.225,0.049,0.337c0.019,0.129,0.034,0.259,0.06,0.388
	c0.026,0.128,0.061,0.253,0.093,0.379c0.028,0.111,0.052,0.222,0.086,0.332c0.038,0.124,0.084,0.244,0.128,0.365
	c0.039,0.109,0.076,0.219,0.12,0.327c0.047,0.114,0.103,0.222,0.155,0.333c0.053,0.111,0.102,0.223,0.16,0.332
	c0.057,0.107,0.123,0.208,0.185,0.313c0.064,0.105,0.123,0.212,0.192,0.316c0.078,0.117,0.165,0.227,0.25,0.338
	c0.063,0.083,0.121,0.169,0.188,0.25c0.157,0.191,0.323,0.375,0.499,0.549c0.001,0,0.001,0.001,0.002,0.002
	c0.015,0.015,0.032,0.028,0.048,0.043c0.16,0.157,0.326,0.308,0.5,0.45c0.084,0.069,0.173,0.129,0.259,0.193
	c0.109,0.082,0.216,0.166,0.329,0.241c0.105,0.071,0.215,0.132,0.323,0.196c0.101,0.061,0.201,0.124,0.305,0.18
	c0.111,0.059,0.224,0.109,0.337,0.162c0.109,0.051,0.216,0.105,0.328,0.151c0.11,0.045,0.221,0.082,0.333,0.122
	c0.119,0.043,0.237,0.088,0.359,0.125c0.112,0.034,0.226,0.059,0.339,0.087c0.123,0.031,0.245,0.065,0.371,0.09
	c0.131,0.026,0.263,0.041,0.394,0.06c0.11,0.016,0.219,0.037,0.33,0.047c0.243,0.024,0.486,0.037,0.73,0.037
	c0.003,0,0.005,0,0.008,0c0.005,0,0.01,0,0.015,0l80.011-0.15c4.143-0.008,7.495-3.372,7.487-7.516
	c-0.008-4.138-3.364-7.486-7.501-7.486c-0.005,0-0.01,0-0.015,0l-61.901,0.116l82.768-83.08
	c39.994,37.224,91.78,57.645,146.694,57.645h0.414c55.061-0.104,106.923-20.722,146.888-58.2l83.083,82.771l-61.901,0.116
	c-4.143,0.008-7.495,3.372-7.487,7.515c0.008,4.138,3.364,7.487,7.501,7.487c0.005,0,0.01,0,0.015,0l80.011-0.15
	c0.065,0,0.128-0.008,0.192-0.01c0.178-0.005,0.356-0.01,0.533-0.027C505.318,511.024,505.397,511.008,505.476,510.997z
	 M256.377,456.528h-0.385c-110.359,0-200.311-89.787-200.518-200.15c-0.101-53.563,20.663-103.958,58.466-141.904
	s88.121-58.899,141.684-59h0.386c110.359,0,200.31,89.786,200.518,200.15C456.734,366.196,366.947,456.32,256.377,456.528z"/>
<path d="M379.05,140.857c1.477,1.578,3.474,2.375,5.478,2.375c1.836,0,3.677-0.671,5.125-2.025c3.024-2.831,3.181-7.578,0.35-10.602
	c-2.919-3.118-5.988-6.175-9.12-9.084c-3.035-2.82-7.782-2.645-10.6,0.39c-2.819,3.035-2.645,7.781,0.39,10.601
	C373.551,135.184,376.369,137.992,379.05,140.857z"/>
<path d="M255.683,87.48c0.108,0,0.214,0,0.322,0c32.677,0,64.362,9.36,91.646,27.077c3.474,2.256,8.12,1.269,10.376-2.206
	c2.256-3.474,1.269-8.12-2.206-10.376c-29.724-19.302-64.23-29.497-99.816-29.497c-0.116,0-0.235,0-0.351,0
	c-49.021,0.092-95.072,19.269-129.67,53.997c-34.598,34.729-53.601,80.851-53.508,129.872c0.08,42.562,15.059,84.014,42.18,116.723
	c1.483,1.789,3.622,2.713,5.778,2.713c1.687,0,3.383-0.566,4.784-1.727c3.188-2.644,3.63-7.373,0.986-10.562
	c-24.899-30.03-38.652-68.093-38.726-107.175c-0.085-45.014,17.365-87.366,49.135-119.256
	C168.382,105.173,210.669,87.565,255.683,87.48z"/>
<path d="M409.645,155.595c-2.269-3.465-6.918-4.436-10.384-2.167c-3.465,2.27-4.436,6.919-2.166,10.384
	c17.88,27.309,27.365,59.078,27.427,91.872c0.084,45.014-17.365,87.367-49.135,119.256c-31.77,31.89-74.057,49.499-119.071,49.584
	c-0.107,0-0.208,0-0.315,0c-38.966-0.002-76.958-13.604-106.998-38.318c-3.199-2.631-7.926-2.172-10.558,1.026
	c-2.632,3.199-2.172,7.927,1.026,10.558c32.721,26.921,74.093,41.736,116.53,41.736c0.114,0,0.229,0,0.343,0
	c49.022-0.092,95.073-19.269,129.67-53.997s53.601-80.851,53.509-129.872C439.456,219.945,429.125,185.344,409.645,155.595z"/>
</svg>